<?xml version="1.0" encoding="utf-8"?>
<!-- Generator: Adobe Illustrator 22.1.0, SVG Export Plug-In . SVG Version: 6.00 Build 0)  -->
<svg version="1.1" id="catFace" xmlns="http://www.w3.org/2000/svg" xmlns:xlink="http://www.w3.org/1999/xlink" x="0px" y="0px"
	 viewBox="0 0 492.9 407.3" style="enable-background:new 0 0 492.9 407.3;" xml:space="preserve">
<style type="text/css">
	.st0{fill:#FFC44E;}
	.st1{fill:#FDBE33;}
	.st2{fill:#E5A812;}
	.st3{fill:#69502E;}
	.st4{fill:#FFFFFF;}
	.st5{fill:#EC1C24;}
</style>
<g>
	<g>
		<path id="head" class="st0" d="M467.3,214.8c0,106.3-61.9,192.5-220.9,192.5S25.5,321.1,25.5,214.8S87.4,22.3,246.4,22.3
			C405.4,22.3,467.3,108.5,467.3,214.8z"/>
		<path id="earTip" class="st1" d="M474.1,18.8c-12.6-12.6-111.4-39.5-161.3,9.4c95.5,18.3,141.5,77.5,152.1,151.7
			C513.5,129.9,486.7,31.4,474.1,18.8z M18.8,18.8C6.2,31.4-20.6,129.9,28,179.9C38.5,105.7,84.6,46.5,180.1,28.2
			C130.1-20.7,31.4,6.2,18.8,18.8z"/>
		<path id="innerEar" class="st2" d="M452.4,40.5c-10.2-6.9-68.8-19.5-104.7-3.1c57.8,19.9,92.4,58.2,108.5,105.9
			C471.2,107.6,459.2,50.5,452.4,40.5z M40.5,40.5c-6.8,10-18.8,67.1-3.9,102.8c16.1-47.7,50.7-86,108.5-105.9
			C109.3,21,50.7,33.6,40.5,40.5z"/>
		<path id="noseStripes" class="st2" d="M217.6,23.3c-11.1,0.8-21.7,2.1-31.7,3.8v54.3c0,8.8,7.1,15.9,15.9,15.9
			c8.8,0,15.9-7.1,15.9-15.9L217.6,23.3L217.6,23.3z M246.5,114.2c8.8,0,15.9-7.1,15.9-15.9V22.6c-5.2-0.2-10.5-0.3-15.9-0.3
			s-10.7,0.1-15.9,0.3v75.7C230.6,107.1,237.7,114.2,246.5,114.2z M246.4,244.3c-16.5,0-30,5.1-30,9.5c0,7.1,20.8,22.5,30,22.5
			c9.1,0,30-15.4,30-22.5C276.4,249.3,263,244.3,246.4,244.3z M275.3,23.3v58c0,8.8,7.1,15.9,15.9,15.9s15.9-7.1,15.9-15.9V27.1
			C297,25.4,286.5,24.1,275.3,23.3z"/>
		<path id="whiskers" class="st3" d="M110.6,310.2l-50.7,13.6c-5.7,1.5-9,7.3-7.5,13s7.3,9,13,7.5l50.7-13.6c5.7-1.5,9-7.3,7.5-13
			C122.1,312,116.3,308.7,110.6,310.2z M116.1,276.9l-50.7-13.6c-5.7-1.5-11.5,1.8-13,7.5s1.8,11.5,7.5,13l50.7,13.6
			c5.7,1.5,11.5-1.8,13-7.5C125.1,284.2,121.8,278.4,116.1,276.9z M433.1,323.8l-50.7-13.6c-5.7-1.5-11.5,1.8-13,7.5
			s1.8,11.5,7.5,13l50.7,13.6c5.7,1.5,11.5-1.8,13-7.5C442.1,331.1,438.7,325.3,433.1,323.8z M382.3,297.4l50.7-13.6
			c5.7-1.5,9-7.3,7.5-13s-7.3-9-13-7.5l-50.7,13.6c-5.7,1.5-9,7.3-7.5,13S376.7,298.9,382.3,297.4z"/>
	</g>
	<g>
		<g>
			<path id="leftEye" class="st3" d="M153.3,205.1c0-19.2-15.5-34.7-34.7-34.7s-34.7,15.5-34.7,34.7s15.5,34.7,34.7,34.7
				S153.3,224.3,153.3,205.1z"/>
			<path id="rightEye" class="st3" d="M409,205.1c0-19.2-15.5-34.7-34.7-34.7s-34.7,15.5-34.7,34.7s15.5,34.7,34.7,34.7
				S409,224.3,409,205.1z"/>
		</g>
		<path id="mouth" class="st4" d="M246.4,345c-2.2,0-4.3-0.1-6.3-0.3c-22.3-2-21-49.7,1.3-49.7h10c22.3,0,23.5,47.7,1.3,49.7
			C250.6,344.9,248.6,345,246.4,345z"/>
	</g>
</g>
<path class="st3" d="M152.8,187.7h-69c-8.3,0-15-6.7-15-15s6.7-15,15-15h69c8.3,0,15,6.7,15,15C167.8,180.9,161.1,187.7,152.8,187.7
	z"/>
<path class="st3" d="M410.3,187.7h-69c-8.3,0-15-6.7-15-15s6.7-15,15-15h69c8.3,0,15,6.7,15,15C425.3,180.9,418.6,187.7,410.3,187.7
	z"/>
<path class="st5" d="M171.9,180.8c0-14.5-11.8-26.3-26.3-26.3s-26.3,11.7-26.3,26.2c-0.1-14.5-11.8-26.2-26.3-26.2
	s-26.3,11.8-26.3,26.3c0,39,52.4,68.8,52.6,68.9C119.3,249.8,171.9,219.8,171.9,180.8z"/>
<path class="st5" d="M427.9,180.8c0-14.5-11.8-26.3-26.3-26.3s-26.3,11.7-26.3,26.2c-0.1-14.5-11.8-26.2-26.3-26.2
	s-26.3,11.8-26.3,26.3c0,39,52.4,68.8,52.6,68.9C375.3,249.8,427.9,219.8,427.9,180.8z"/>
</svg>
